<?xml version="1.0" encoding="utf-8"?>
<!-- Generator: Adobe Illustrator 23.0.1, SVG Export Plug-In . SVG Version: 6.00 Build 0)  -->
<svg version="1.1" id="Layer_1" xmlns="http://www.w3.org/2000/svg" xmlns:xlink="http://www.w3.org/1999/xlink" x="0px" y="0px"
	 viewBox="0 0 352 352" style="enable-background:new 0 0 352 352;" xml:space="preserve">
<style type="text/css">
	.st0{fill:#DDDDDD;}
</style>
<g>
	<path class="st0" d="M176,22.4c41,0,79.6,16,108.6,45c29,29,45,67.6,45,108.6s-16,79.6-45,108.6s-67.6,45-108.6,45
		s-79.6-16-108.6-45s-45-67.6-45-108.6s16-79.6,45-108.6C96.4,38.3,135,22.4,176,22.4 M176,7C82.7,7,7,82.7,7,176s75.7,169,169,169
		s169-75.7,169-169S269.3,7,176,7L176,7z"/>
</g>
<g>
	<circle class="st0" cx="176" cy="62.7" r="19.2"/>
</g>
</svg>
